<svg viewBox="0 0 512 512">
  <path d="M332.3 0h141.4c2.3.9 4.7 1.2 7 2.1a33 33 0 0 1 18.2 17.3c4 8.8 2.9 24.2 2.9 34v87.9c0 9.4 1 26.3-2.2 34.7a33 33 0 0 1-25.5 20.8c-4.2.5-10.4.4-14.8.4h-29.2c-3.9 0-11.8-.3-15.5.1-2.7 1.8-5.1 5.5-7.2 8.1l-11.8 15.4c-4.4 5.7-10.6 16.4-19 14.8-14.7-3-9.8-18-10.6-28.8-.2-3.1.7-8.7-3.7-9.3-10.4-1.4-23 1-33.2-1.3 0 5.5-.3 13.8 0 19.2a30 30 0 0 1 10.7 22.7c.4 10.8-.5 19.4-8.2 27.6a30 30 0 0 1-22 9.6c-3.9 0-10 .3-13.8 0a130.2 130.2 0 0 1-41.4 52.8c-5.2 4-9.8 6.7-15 10.3a25 25 0 0 1-7.4 26.3c-1.3 1.2-6.2 3.9-6.4 4.7-.9 4.1 4.2 10.5 7.4 12 4.6 2 10.3 2.4 15.4 3.2 12 1.7 23.3 3.7 34.2 9.7 5.4 3 10.4 6.2 6.8 13.3 5.3 4 9.7 9.3 13.5 14.8 2.4-.7 4.6-1 7 .2 4 2 7.1 12.2 8.4 16.5 3.2 11.6 3 25 4.2 37 .5 5.8 1 13 1 19 0 2.2-.9 5.5-2 7.5-2.2 3.9-5 6.2-9 8-1 .4-2.8 1-3.5 1.4H23.5c-1.5-1-3.2-1.4-5-2.6a13 13 0 0 1-6.2-8.8c-.4-2-.3-5 .2-7l7.8-30.5 15.7-60 7.6-29.6c.6-2.2 3-12.8 4-14.2 10.7-16.4 24-32.7 34.9-48.9a116 116 0 0 1-22-35c-14.2-1-28 3-39.7-7.3A30 30 0 0 1 10.3 247c-.5-13.7.1-20.2 9.3-30.6 0-16-1-32.5-1.3-48.7-.2-7.2-.7-15.7-.3-23A64 64 0 0 1 48.6 94c4.3-2.6 9.8-4.7 14-6.6 1-.4 6-8.5 7.5-10.2q6.4-8.3 14.2-15.3a113 113 0 0 1 66.1-28c6.9-.7 16-.5 23-.4 8.5 0 18.4-.3 26.8.2A137 137 0 0 1 298.6 84q3 4 6.2 7.9c-.3-2.4-.2-7.2-.2-9.7V44.4q0-7.3.3-14.6A33 33 0 0 1 323.7 3c2.6-1.2 5.7-1.7 8.2-2.8z"/>
  <path fill="#acda80" d="M234 397.4c1.8.5 5.7 1 7.8 1.5 1.3 1.7 3.3 2 5.2 2.8l5.4 2.7a66 66 0 0 1 32.6 45.8c1.3 7.4 1.5 15 2.1 22.6.4 7.2 1.6 16.8 1.6 24-2 0-9.5-.2-11 .1-2 .2-4.6 0-6.6 0v-21.1c0-4.3.8-11.3-2-14.5-3.6-4-10.6-3-12.5 2.3-1.5 4 .3 32-1 33.3h-1.3c-2.5-.3-11.2-.1-14-.1h-95.1c-13 0-26.4.2-39.4 0 .4-2.8 1.5-6.7 2.2-9.4l3.6-14q4.4-16.7 8.7-33.4c.8-2.3 1.3-4.9 3.6-6.2 3.8-2.1 9-1.5 13.4-1.5h16.9c3.9 0 8.6.2 12.4-.4q5.8-.9 10.9-3.7c2.7-1.5 9-6.2 9.8-9a80 80 0 0 0 46.6-21.8"/>
  <path fill="#8dca51" d="M241.8 398.9a93 93 0 0 1 32.2 8c5.6 3 10 6.8 15.4.7 5.3 4 9.7 9.3 13.5 14.8-7.2 5.7-2.8 10.1-.3 17 4.4 12.4 3.6 26.5 5 39.4q.8 7.6 1 15.3c0 1.8-1.5 2.8-3.2 2.8-9 0-18.8.5-27.8 0 1.6-.2 9-.1 11.1-.1 0-7.2-1.2-16.8-1.6-24-.6-7.5-.8-15.2-2-22.6a66 66 0 0 0-38.1-48.5c-2-.8-4-1.1-5.2-2.8M111.1 423h23c13.2 0 17 .5 29.3-4.6 9 1.4 15 1.5 24 .8-.8 2.8-7.2 7.5-10 9q-5 2.8-10.8 3.7c-3.8.6-8.5.4-12.4.4h-16.9c-4.3 0-9.6-.6-13.4 1.5-2.3 1.3-2.8 3.9-3.6 6.2q-4.4 16.7-8.7 33.4l-3.6 14c-.7 2.7-1.8 6.6-2.2 9.3 13 .3 26.4 0 39.4 0h95.1c2.8 0 11.5 0 14 .3-6.2.2-13.8 0-20 0H91.8c2.4-8.2 4.5-16.9 6.6-25.1z"/>
  <path fill="#fba995" d="M73.2 159.1q3.6 1.4 7-.2c2.2-1.3 3.6-4.1 4.8-6.4q4.7-9 10.9-16.8c1.5-2 4.7-6.7 7.8-6 3.4 1 6.7 6.2 9.5 8.6 13 13.6 31.6 29.1 51 18 4.2-2.4 5.6-5.4 8.6-8 4.7 1.7 9.2 4 13.9 5.8a263 263 0 0 0 67 16.8c4.5.5 10.8.6 15 1.5q3.5.7 6.5 2.8c5 3.1 8 8.2 9.1 14 6.5 33.1 8.4 67.2-10.8 96.6a125 125 0 0 1-43 40.3c-10.3-7.1-26.5-4.7-38.9-4.9-17.6.4-37.1 0-54.9 0 2.7-3.8 6-9 8.9-12.6 9.5-11.7 8.4-28.3-4.8-37.2a25 25 0 0 0-19.2-3.9c-10.8 2.2-15.2 9.8-21.2 18.2q-4.6 6.1-8.8 12.4A99 99 0 0 1 67.3 227q.3-14.7 2.8-29.3c1.2-7.4 5.8-16.5-3.4-20l1.2-3.4q2.4-7.6 5.3-15"/>
  <path fill="#e09281" d="M275.2 175.2c5 3.1 8 8.2 9.1 14 6.5 33.1 8.4 67.2-10.8 96.6a125 125 0 0 1-43 40.3c-10.3-7.1-26.5-4.7-38.9-4.9 3.2-.8 3.9-1.4 6.9-2.7 46.4-20.9 79-59.7 78.5-112q0-9-.8-18c-.2-3.1-1.5-10.5-1-13.3"/>
  <path d="M194.4 258.4c1.6-.3 6.8-.2 8.7 0 6.4 1 22.7 4.8 21.3 13.7a9 9 0 0 1-3.4 5.2c-4.5 3-8.7-.4-12.9-2-2.2-1-3-1.3-5.4-1.7a28 28 0 0 0-10.9.3c-5.1 1.2-11.4 7-16.6 3.5-3.3-2.1-4.5-8.1-1.6-11a39 39 0 0 1 20.8-8M251.1 217.3c8.2-.6 9 6.5 8.7 12.6-.3 5.6-.2 8.6-6.2 10.7-6.5.7-9.1-4-9-9.7.2-6-1-11.8 6.5-13.6M139.2 217.3c9.4-.2 8.6 8.3 8.4 15q.1 7-6.8 8.4c-8.9 0-8.6-8.6-8.3-15 .3-4.4 2.3-7.5 6.7-8.4"/>
  <path fill="#f7e366" d="M329.2 180.2c-.3-3-.1-7.9-.2-11a143 143 0 0 0-5-36.1c-1.6-5.6-4.3-11.1-4.3-16.6v-76c0-7.9-.9-14.2 5.2-20.3 6.4-6.5 15.3-5.2 23.8-5.2h109.4c8.2 0 17-1.3 23.3 5.1 7 6.8 5.4 16 5.4 25v117.4c0 6-1 10-5.3 14.5-6.3 6.4-15.9 5.2-24.4 5.1h-28.7c-4 0-12.4-.2-16 .4q-4.6 1-8.2 3.8c-3.3 2.6-8.7 10-11.4 13.6-3.7 4.8-8.3 10.5-11.8 15.4-.1-6.2.7-15.4-1.6-20.9-8.8-20.8-34.3-7.5-50.2-14.2"/>
  <path fill="#f4d333" d="M458.1 15c8.2 0 17-1.3 23.3 5.1 7 6.8 5.4 16 5.4 25v117.4c0 6-1 10-5.3 14.5-6.3 6.4-15.9 5.2-24.4 5.1l2.9-.2c7.3-8.2 7-14.7 7-25V50.7c0-6.9.2-14.5-.3-21.3a28 28 0 0 0-5.2-12.4c-1.4-1.5-1.3-1.7-3.4-1.9"/>
  <path d="M399.7 36.8a35 35 0 0 1 37.9 29.7 35 35 0 0 1-31.6 39.6c0 6.3.4 13.4-.3 19.7-.4 3.3-4 6.2-7.4 6q-3.4-.1-5.6-2.6c-1.8-2.1-1.8-5.6-1.7-8.3q-.1-11.1 0-22.2c.1-3 1.1-4.4 3.3-6.3 4-2.1 8.5-.6 13.4-1.8 5.2-1.2 9.7-4.5 12.5-9a20 20 0 0 0-7-27.2 19.6 19.6 0 0 0-29.2 13c-.8 4.3-.6 10.2-6.3 11.3q-3.4.7-6.2-1.2c-7.1-5.1-.3-21.7 4-27a35 35 0 0 1 24.2-13.7M397.7 143.3c9.7-.7 12 14.8 1.6 17.2-10.2.6-11.9-15.3-1.6-17.2"/>
  <path fill="#655f67" d="m34.5 208.8-1.2-44.3q-.3-7.2-.4-14.3A49 49 0 0 1 60 104.8c4-2 9.8-3.2 12.8-5.5 1.4-1 5-7.4 6.5-9.5q4.8-6.6 10.5-12.5a98 98 0 0 1 73.2-28.8h22q8.9-.2 17.6.4a121.2 121.2 0 0 1 110.6 107.8c.8 7.9.7 16.2.7 24v27.8c-4-.2-7.4-.2-11.5-.2-.1-4.2-1.1-9.3-1.8-13.5-1.7-11.6-4.1-21.4-13.4-29.4a35 35 0 0 0-13.3-7.2c-5.9-1.6-16.1-2-22.8-2.7a237 237 0 0 1-54.8-13.7c-5.7-2.2-17.8-8.4-23.3-8.4-11.7 0-13.3 11.2-22 11.6-9.7.6-21.2-10.9-27.5-17.5q-3.7-4.2-7.7-8c-3.9-3.4-9-5.3-14.2-4.9a21 21 0 0 0-15 8.5c-4.4 5.3-18.3 23.8-17.6 30.2.3 2.7 2.1 4.3 4.1 5.8q-2.9 7.5-5.3 15l-1.2 3.6c-2-.5-4.5-.1-6.1 1.2-2.7 2.2-3.4 5.5-4 8.7a207 207 0 0 0-3.2 20.7c-5.1 0-14-.3-18.9.5"/>
  <path fill="#fba995" d="M126.3 282q1.5 0 3.2.5c2.6.7 5 2.6 6.3 5a9 9 0 0 1 .6 7c-.8 2.6-2.6 4.8-4.1 7-3.2 4.5-11.5 14.8-12.8 19.6q-1.4 4.7 1.2 9.1c1.3 2.4 3.7 4.6 6.3 5.4 4.5 1.4 21.3.7 26.9.7H215c4.5 0 7.5 1.6 9.6 5.7a8 8 0 0 1 .5 7c-2.5 7.6-10.2 7-16.2 7l-16.7-.1c-3.1 0-8-.2-11 .3a14 14 0 0 0-4.8 1.6c-11.1 6.1-4.5 20.6-7.7 32-2.5 9-10 15.8-19.2 17.6-4.1.8-9.8.6-14.1.6h-17.2c-4.9 0-10-.4-14.4 2a15 15 0 0 0-5.5 5.5c-2.3 3.9-6.4 21.8-7.9 27.3-1 5.2-3.3 13-4.7 18.3l-9.4 36-49.2-.2c3-10.8 5.8-22.2 8.6-33.1L52 401.4l6-23.1c.8-3 2.5-10.3 3.7-12.8 1.2-2.6 5.7-8.2 7.6-10.8l11-15.2 24.4-33.9 13.3-18.5c2.5-3.3 4.3-4.5 8.4-5M40.5 223.4h11.8c-.3 12.9-.1 24.3 3.2 36.8H39.9c-3.5 0-7-1.4-9.6-3.7q-5-4.6-5-11.4c-.2-6.2-.6-12.1 4-17 3.2-3.4 6.6-4.5 11.2-4.7"/>
  <path fill="#e09281" d="M184.7 371h25.8a30.5 30.5 0 0 0 9.2 19.1c-9 6.1-13.6 9.4-24.7 12.3a77 77 0 0 1-16.7 2.3c7.3-11.9 6.5-20.5 6.4-33.7"/>
  <path fill="#fba995" d="m195 402.4-.5-.1q-.4-.8-.3-1.8c0-20.7-2.6-20.7 18.6-20.2 1.8 3.8 3.8 7 6.8 9.8-9 6.1-13.5 9.4-24.6 12.3M303.8 223.4h5.6c13 .2 16.6 11.2 15.4 22-.7 5.5-1.7 8-5.8 11.7-5.8 4.1-11.5 3.2-18.4 3.1 2-7.5 3-17 3.2-24.8 0-3.3-.4-9 0-12"/>
</svg>

