<svg viewBox="0 0 425 426">
  <path fill="currentColor" fill-rule="evenodd" d="m280 0 11 6a514 514 0 0 1 126 125c5 8 7 11 7 14 0 2-1 4-3 5-2 2-4 2-18 1a202 202 0 0 0-71 11 235 235 0 0 0-66 38l-35 34 10 11c8 8 11 12 14 17l4 14v14l-4 14c-3 6-7 11-41 45-36 36-39 38-46 42a49 49 0 0 1-27 4c-4 0-9-2-14-4-6-3-10-6-31-26l-14 13c-11 11-14 14-13 16l1 8c0 5 0 7-2 11l-5 6a28 28 0 0 1-15 7l-8-2c-4-2-9-7-21-19-10-9-16-17-17-19l-2-9 2-9c1-2 2-5 4-6 1-2 4-4 7-5 3-2 5-2 10-2l9 1a10547 10547 0 0 0 195-199 219 219 0 0 0 37-64 267 267 0 0 0 9-44V6l3-3 4-3zM129 333l6 6 8 7 4 1 6-1 30-29c27-27 27-27 28-32v-5l-13-14a1188 1188 0 0 0-69 67z"/>
</svg>
