<svg version="1.2" xmlns="http://www.w3.org/2000/svg" viewBox="0 0 192 192" width="192" height="192">
	<style>
		.s0 { fill: #ce1628 } 
		.s1 { fill: #ffffff } 
	</style>
	<g id="Background">
		<path id="Path 0" class="s0" d="m77 1.2c-1.9 0.5-7.5 2.3-12.5 4-5 1.6-12.4 4.9-16.5 7.3-4.1 2.4-10.4 6.8-14 9.7-3.6 3-9 8.5-12.1 12.3-3.1 3.9-7.2 9.7-9.2 13-2 3.3-5 9.8-6.7 14.5-1.7 4.7-3.8 11.5-4.6 15.3-0.8 3.7-1.4 12.2-1.4 19.2 0 7.9 0.6 15 1.6 19.3 0.9 3.7 2.9 10.3 4.5 14.7 1.7 4.4 4.6 10.7 6.6 14 2 3.3 6.1 9.1 9.2 13 3.1 3.8 8.3 9.1 11.6 11.9 3.3 2.7 8.5 6.5 11.5 8.5 3 1.9 8.9 4.9 13 6.6 4.1 1.8 11.2 4.2 15.8 5.3 6.5 1.8 11.1 2.2 22.4 2.2 12.3 0 15.7-0.4 23.8-2.6 5.2-1.4 13.6-4.5 18.5-6.9 4.9-2.4 12.8-7.5 17.5-11.2 4.7-3.7 11.5-10.6 15.3-15.3 3.7-4.7 8.7-12.6 11.1-17.5 2.4-4.9 5.4-12.4 6.6-16.5 1.7-5.6 2.3-11.2 2.8-22.5 0.4-13.3 0.2-16.1-1.8-24.5-1.2-5.2-3.7-12.9-5.4-17-1.8-4.1-4.8-10-6.7-13-2-3-5.8-8.2-8.5-11.5-2.8-3.3-8.1-8.5-11.9-11.6-3.9-3.2-9.7-7.3-13-9.2-3.3-1.9-8.9-4.7-12.5-6.1-3.6-1.4-10-3.4-14.2-4.6-6.3-1.6-10.7-2-22.6-1.9-8.1 0.1-16.3 0.5-18.2 1.1z"/>
		<path id="Path 1" class="s1" d="m86.6 42.4c-0.3 0.9 0.4 3.7 1.7 6.4 2 4.2 2.2 6.5 2.5 21.7 0.2 9.3 0 17.6-0.3 18.3-0.4 0.9-1.1 0.8-2.9-0.5-1.4-1-8.6-6.5-16.2-12.3l-13.6-10.5c-3.7 4.3-4.8 5.8-4.8 6.3-0.1 0.4 7.8 6.8 17.5 14.2 9.6 7.4 17.5 13.7 17.5 14-0.1 0.3-6.5 5.3-14.3 11.2-7.8 5.9-15.7 12-17.6 13.5-3.3 2.8-3.4 2.8-1.7 5.6 0.9 1.5 2.4 2.7 3.4 2.7 0.9 0 8.3-5.2 16.5-11.5 8.1-6.3 15.2-11.5 15.7-11.5 0.6 0 1.1 7.6 1.3 20.3l0.2 20.2h8l1-41.3c24 18.4 31.7 23.8 32.5 23.8 0.8-0.1 2.3-1.2 3.3-2.5q1.7-2.5 0.8-3.8c-0.6-0.6-8.4-6.8-17.5-13.7-9.1-6.9-16.5-12.7-16.6-13 0-0.3 7.9-6.6 17.5-14 9.7-7.4 17.6-13.7 17.5-14 0-0.3-1.1-1.8-2.4-3.5l-2.4-3q-13.6 10.3-22.4 17.2l-10.8 8.3v-15.5c8.9-1.1 12.6-2.3 14-3.3 1.4-1 3.5-3.4 4.8-5.3 1.7-2.5 2.3-4.8 2.3-8.9 0-4.1-0.6-6.4-2.3-8.9-1.3-1.9-3.6-4.4-5.1-5.5-2.4-1.8-4.6-2.1-14.7-2.4-10.1-0.3-12-0.1-12.4 1.2z"/>
		<path id="Path 2" class="s0" d="m100 58v8c5.9 0.1 8.5-0.7 9.8-1.7 1.2-1 2.5-3.4 2.9-5.3 0.5-2.9 0.2-4-2-6.3-2.1-2-3.6-2.7-6.7-2.7h-4z"/>
	</g>
</svg>
